<svg width="18" height="21" viewBox="0 0 18 21" fill="none" xmlns="http://www.w3.org/2000/svg">
<path d="M10.0465 0.626744C10.0465 0.647674 12.3907 2.48953 16.5349 2.88721C17.3721 2.97093 18 3.66163 18 4.49884C18 16.2198 9.98372 19.8407 9.64884 19.9872C9.43953 20.0709 9.23023 20.1128 9 20.1128C8.76977 20.1128 8.56046 20.0709 8.35116 19.9872C8.01628 19.8407 0 16.2198 0 4.49884C0 3.66163 0.627907 2.97093 1.46512 2.88721C5.6093 2.48953 7.95349 0.647674 7.97442 0.626744C8.5814 0.124419 9.43953 0.124419 10.0465 0.626744Z" fill="#54B856"/>
<mask id="mask0_80_239572" style="mask-type:alpha" maskUnits="userSpaceOnUse" x="0" y="0" width="18" height="21">
<path d="M10.0465 0.626744C10.0465 0.647674 12.3907 2.48953 16.5349 2.88721C17.3721 2.97093 18 3.66163 18 4.49884C18 16.2198 9.98372 19.8407 9.64884 19.9872C9.43953 20.0709 9.23023 20.1128 9 20.1128C8.76977 20.1128 8.56046 20.0709 8.35116 19.9872C8.01628 19.8407 0 16.2198 0 4.49884C0 3.66163 0.627907 2.97093 1.46512 2.88721C5.6093 2.48953 7.95349 0.647674 7.97442 0.626744C8.5814 0.124419 9.43953 0.124419 10.0465 0.626744Z" fill="#54B856"/>
</mask>
<g mask="url(#mask0_80_239572)">
<path opacity="0.6" d="M19.7033 -7.51824C19.7091 -7.48523 23.9154 -5.22811 30.5615 -5.7462C31.9051 -5.84553 33.0863 -4.9297 33.3177 -3.60926C36.5569 14.8769 24.9144 22.8033 24.4267 23.1269C24.1197 23.3168 23.8012 23.4407 23.4381 23.5043C23.0749 23.5679 22.7332 23.5597 22.38 23.4855C21.8113 23.347 8.16739 19.8515 4.92814 1.36531C4.69676 0.0448688 5.49621 -1.21803 6.79351 -1.58145C13.2198 -3.35397 16.408 -6.90679 16.4352 -6.94559C17.2537 -7.9056 18.6072 -8.14276 19.7033 -7.51824Z" fill="#479C33"/>
<path d="M25.6819 -8.56512C25.6876 -8.53211 29.8939 -6.27498 36.54 -6.79308C37.8836 -6.89241 39.0648 -5.97657 39.2962 -4.65613C42.5354 13.8301 30.8929 21.7564 30.4052 22.08C30.0982 22.2699 29.7797 22.3938 29.4166 22.4574C29.0534 22.521 28.7118 22.5129 28.3585 22.4387C27.7899 22.3001 14.1459 18.8046 10.9067 0.318437C10.6753 -1.00201 11.4747 -2.2649 12.772 -2.62832C19.1983 -4.40084 22.3865 -7.95367 22.4138 -7.99246C23.2323 -8.95248 24.5857 -9.18964 25.6819 -8.56512Z" fill="#479C33"/>
</g>
</svg>
